# xmcd
#
# Track frame offsets:
#	150
#	16863
#	29402
#	49019
#	57844
#	85292
#	104322
#	127056
#	152526
#	167754
#	172262
#	186152
#	200637
#	211625
#	221059
#	235006
#
# Disc length: 3318 seconds
#
# Revision: 4
# Processed by: cddbd v1.5.2PL0 Copyright (c) Steve Scherf et al.
# Submitted via: audiograbber 1.83.01
#
DISCID=db0cf410
DTITLE=Jethro Tull - This Was-2008 Collector's Edition-Disc 2
DYEAR=1968
DGENRE=Rock
TTITLE0=My Sunday Feeling [Stereo Remix]
TTITLE1=Some Day The Sun Won´t Shine [Stereo Remix]
TTITLE2=Beggar's Farm [Stereo Remix]
TTITLE3=Move On Alone [Stereo Remix]
TTITLE4=Serenade To A Cuckoo [Stereo Remix]
TTITLE5=Dharma For One [Stereo Remix]
TTITLE6=It´s Breaking Me Up [Stereo Remix]
TTITLE7=Cat´s Squirrel [Stereo Remix]
TTITLE8=A Song For Jeffrey [Stereo Remix]
TTITLE9=Round [Stereo Remix]
TTITLE10=Love Story [Stereo Remix]
TTITLE11=Christmas Song [Stereo Remix]
TTITLE12=Sunshine Day [Original Mono]
TTITLE13=One For John Gee [Original Mono]
TTITLE14=Love Story [Original Mono]
TTITLE15=Christmas Song [Original Mono]
EXTD=
EXTT0=
EXTT1=
EXTT2=
EXTT3=
EXTT4=
EXTT5=
EXTT6=
EXTT7=
EXTT8=
EXTT9=
EXTT10=
EXTT11=
EXTT12=
EXTT13=
EXTT14=
EXTT15=
PLAYORDER=
